<?xml version="1.0" encoding="utf-8"?>
<!-- Generator: Adobe Illustrator 24.3.0, SVG Export Plug-In . SVG Version: 6.00 Build 0)  -->
<svg version="1.1" id="Layer_1" xmlns="http://www.w3.org/2000/svg" xmlns:xlink="http://www.w3.org/1999/xlink" x="0px" y="0px"
	 width="240px" height="46px" viewBox="0 0 240 46" style="enable-background:new 0 0 240 46;" xml:space="preserve">
<style type="text/css">
	.st0{fill:none;}
	.st1{fill:#66CCCC;}
</style>
<rect class="st0" width="240" height="46"/>
<rect y="0" class="st0" width="240" height="46"/>
<g>
	<g>
		<path class="st1" d="M6,18.9c0.6,0.5,1.3,0.8,2.1,0.8h0.3c1.8,0,3.2-1.4,3.2-3.2V9.9v0c0,0,0,0,0,0c0-1.8-1.4-3.2-3.2-3.2H8.3h0
			H8.1c-0.9,0-1.8,0.4-2.4,1.1C5.2,8.3,4.9,9.1,4.9,9.9v6.6C4.9,17.4,5.3,18.3,6,18.9z"/>
		<path class="st1" d="M8.3,37.3c-0.4,0-0.7,0.3-0.7,0.7s0.3,0.7,0.7,0.7c0.4,0,0.7-0.3,0.7-0.7S8.7,37.3,8.3,37.3z"/>
		<path class="st1" d="M11,39.2c-0.4,0-0.7,0.3-0.7,0.7c0,0.4,0.3,0.7,0.7,0.7h0c0.4,0,0.7-0.3,0.7-0.7C11.6,39.5,11.3,39.2,11,39.2
			z"/>
		<path class="st1" d="M27.1,6.7h-0.3c-1.8,0-3.2,1.4-3.2,3.2v0v4.7v0.7c0,2.5-2.1,4.4-4.6,4.4h-3.3c-6,0-10.9,4.6-10.9,10.7v5.6
			v1.1c0,0.4,0.3,0.7,0.7,0.7s0.7-0.3,0.7-0.7V34c0-0.4,0.3-0.7,0.7-0.7c0.4,0,0.7,0.3,0.7,0.7v1.8c0,0.4,0.3,0.7,0.7,0.7
			c0.4,0,0.7-0.3,0.7-0.7v-3c0-0.4,0.3-0.7,0.7-0.7c0.4,0,0.7,0.3,0.7,0.7v4.9c0,0.4,0.3,0.7,0.7,0.7c0.4,0,0.7-0.3,0.7-0.7v-2.4
			v-4.8c0-2.5,2-4.3,4.5-4.3h3.3c1.5,0,2.9-0.3,4.2-0.8V36c0,1.8,1.4,3.2,3.2,3.2h0.3c1.8,0,3.2-1.4,3.2-3.2V15.3v-0.7V9.9v0
			c0,0,0,0,0,0C30.3,8.1,28.9,6.7,27.1,6.7z"/>
	</g>
	<path class="st1" d="M52.4,17.5c-1.7-1.7-4.3-2.6-8-2.6c-3.1,0-5.4,0.4-7.5,1.2c-1.1,0.4-1.8,1.4-1.8,2.6c0,1.5,1.2,2.7,2.8,2.7
		c0.3,0,0.6,0,1-0.2c1.3-0.4,2.8-0.7,4.6-0.7c3.4,0,5.1,1.5,5.1,4.3v0.4c-1.7-0.6-3.4-1-5.8-1c-5.6,0-9.5,2.4-9.5,7.5V32
		c0,4.7,3.7,7.2,8.1,7.2c3.3,0,5.5-1.2,7.1-3v0c0,1.4,1.3,2.8,3.2,2.8c1.8,0,3.3-1.4,3.3-3.2V25.1C54.9,21.9,54.1,19.3,52.4,17.5z
		 M48.6,30.5c0,2.4-2.1,4.1-5.2,4.1c-2.2,0-3.7-1.1-3.7-2.9v-0.1c0-2.1,1.8-3.3,4.6-3.3c1.6,0,3.1,0.4,4.3,0.9V30.5z"/>
	<g>
		<path class="st1" d="M58.3,18.3c0-1.9,1.5-3.4,3.4-3.4c1.9,0,3.4,1.5,3.4,3.4v1.1c1-2.3,2.6-4.4,4.5-4.4c2.1,0,3.3,1.4,3.3,3.3
			c0,1.8-1.1,2.8-2.5,3.1c-3.4,0.8-5.3,3.4-5.3,8.2v6.3c0,1.9-1.5,3.4-3.4,3.4c-1.9,0-3.4-1.5-3.4-3.4V18.3z"/>
	</g>
	<g>
		<path class="st1" d="M73.9,18.3c0-1.9,1.5-3.4,3.4-3.4c1.9,0,3.4,1.5,3.4,3.4v0.3c1.5-2,3.6-3.8,7-3.8c3.1,0,5.4,1.4,6.7,3.7
			c2.1-2.4,4.5-3.7,7.8-3.7c5,0,8,3,8,8.7v12.3c0,1.9-1.5,3.4-3.4,3.4c-1.9,0-3.4-1.5-3.4-3.4V25.6c0-3.2-1.4-4.8-3.9-4.8
			c-2.5,0-4.1,1.6-4.1,4.8v10.1c0,1.9-1.5,3.4-3.4,3.4c-1.9,0-3.4-1.5-3.4-3.4V25.6c0-3.2-1.4-4.8-3.9-4.8c-2.5,0-4.1,1.6-4.1,4.8
			v10.1c0,1.9-1.5,3.4-3.4,3.4c-1.9,0-3.4-1.5-3.4-3.4V18.3z"/>
	</g>
	<path class="st1" d="M125,14.7c-7.4,0-12.8,5.5-12.8,12.3v0.1c0,6.8,5.4,12.2,12.7,12.2c7.4,0,12.8-5.5,12.8-12.3v-0.1
		C137.7,20.2,132.3,14.7,125,14.7z M131.1,27.1c0,3.5-2.3,6.4-6.1,6.4c-3.7,0-6.2-3-6.2-6.5v-0.1c0-3.5,2.3-6.4,6.1-6.4
		C128.6,20.5,131.1,23.5,131.1,27.1L131.1,27.1z"/>
	<g>
		<path class="st1" d="M140,18.3c0-1.9,1.5-3.4,3.4-3.4c1.9,0,3.4,1.5,3.4,3.4v0.3c1.5-2,3.5-3.8,6.9-3.8c5.1,0,8,3.4,8,8.8v12.2
			c0,1.9-1.5,3.4-3.4,3.4c-1.9,0-3.4-1.5-3.4-3.4V25.6c0-3.2-1.5-4.8-4.1-4.8s-4.2,1.6-4.2,4.8v10.1c0,1.9-1.5,3.4-3.4,3.4
			c-1.9,0-3.4-1.5-3.4-3.4V18.3z"/>
	</g>
	<g>
		<path class="st1" d="M165.4,45.4c-1-0.4-2.1-1.1-2.1-2.8s1.3-2.7,2.6-2.7c0.5,0,0.8,0.1,1.1,0.2c0.6,0.2,0.9,0.3,1.4,0.3
			c1.2,0,1.8-0.2,2.4-1.4l0.2-0.5L163,19.7c-0.2-0.4-0.4-1.1-0.4-1.5c0-1.9,1.5-3.2,3.3-3.2c1.7,0,2.6,0.9,3.2,2.5l5.1,13.8
			l4.9-13.7c0.5-1.4,1.5-2.6,3.2-2.6s3.2,1.3,3.2,3.1c0,0.5-0.2,1.3-0.3,1.6l-8.2,19.8c-2,4.8-4,6.6-8,6.6
			C167.6,46,166.5,45.8,165.4,45.4z"/>
	</g>
	<g>
		<path class="st1" d="M188.8,36.8l11.1-10.1c5.1-4.6,6.8-7.3,6.8-10.5c0-4-3.3-6.6-7-6.6c-3.7,0-6.3,1.9-8.6,5.2
			c-0.2,0.3-0.5,0.5-0.9,0.5c-0.6,0-1.1-0.4-1.1-1c0-0.2,0-0.4,0.2-0.6c2.6-3.8,5.4-6.1,10.6-6.1c5.2,0,9.2,3.7,9.2,8.5v0.1
			c0,4.2-2.3,7.1-7.7,12l-9.4,8.5h16.5c0.6,0,1.1,0.5,1.1,1.1c0,0.6-0.5,1.1-1.1,1.1h-19.2c-0.6,0-1.1-0.4-1.1-1.1
			C188.3,37.3,188.4,37.1,188.8,36.8z"/>
		<path class="st1" d="M211.8,23.5L211.8,23.5c0-8.6,5-16,12.8-16c7.8,0,12.7,7.4,12.7,15.9v0.1c0,8.5-5,16-12.8,16
			C216.6,39.3,211.8,32,211.8,23.5z M234.9,23.5L234.9,23.5c0-7.3-4.1-14-10.4-14c-6.4,0-10.4,6.6-10.4,13.8v0.1
			c0,7.1,4.1,13.9,10.4,13.9C231,37.3,234.9,30.6,234.9,23.5z"/>
	</g>
</g>
</svg>
