<?xml version="1.0" standalone="no"?>
<svg xmlns="http://www.w3.org/2000/svg" viewBox="0 0 198.68 51.63"><defs><style>.cls-1{fill:#ffce00;}.cls-2{fill:#8a8c8e;}</style></defs><path class="cls-1" d="M48,28.9l-3.38,3.38,1.49-2.48-6.69,3.5,4.48-4L33.63,31.19l8.29-3.75L28.68,25.81l13.24-1.62-8.29-3.75L43.9,22.31l-4.48-4,6.69,3.5-1.49-2.49L48,22.73a4.37,4.37,0,0,1,0,6.17m2.17-9.25L30.51,0l8.2,13.65L18.83,3.23,34,16.7,7.9,12,30.33,22.09,0,25.81l30.33,3.73L7.9,39.68,34,34.92,18.83,48.4,38.71,38l-8.2,13.65L50.17,32a8.72,8.72,0,0,0,0-12.32"></path><path class="cls-2" d="M156.74,28.27A4.4,4.4,0,0,1,152.51,32a3,3,0,0,1-3.08-3.09,5.29,5.29,0,0,1,0-.67,4.4,4.4,0,0,1,4.22-3.75,3,3,0,0,1,3.1,3.08,5.21,5.21,0,0,1-.06.67m-2.54-6.94a8.37,8.37,0,0,0-8.13,6.94,8,8,0,0,0-.09,1.17,5.69,5.69,0,0,0,6,5.79,8.36,8.36,0,0,0,8.13-7,6.62,6.62,0,0,0,.1-1.15,5.7,5.7,0,0,0-6-5.79M78,28.27a4.38,4.38,0,0,1,4.22-3.75,3,3,0,0,1,3.09,3.08,3.88,3.88,0,0,1-.06.67A4.4,4.4,0,0,1,81,32a3,3,0,0,1-3.08-3.09,3.92,3.92,0,0,1,0-.67m-3.41,0a6.81,6.81,0,0,0-.09,1.17,5.68,5.68,0,0,0,6,5.79,8.37,8.37,0,0,0,8.14-7,6.59,6.59,0,0,0,.09-1.15,5.7,5.7,0,0,0-6-5.79,8.37,8.37,0,0,0-8.13,6.94M194,21.33a11.85,11.85,0,0,0-3.87.73,4.88,4.88,0,0,0-1.25.7,4.53,4.53,0,0,0-3.53-1.43,11.85,11.85,0,0,0-3.87.72,3.59,3.59,0,0,0-2.53,3.12l-1.58,10.06a8.6,8.6,0,0,0,3.56-.67l1.37-8.63a1.43,1.43,0,0,1,1-1.22,5.26,5.26,0,0,1,1.56-.27,2,2,0,0,1,2,2.23,3.63,3.63,0,0,1,0,.65l-1.24,7.91a8.58,8.58,0,0,0,3.57-.67l1.37-8.63a1.43,1.43,0,0,1,1-1.22,5.2,5.2,0,0,1,1.56-.27,2,2,0,0,1,2,2.22,5.14,5.14,0,0,1,0,.66l-1.25,7.91a8.61,8.61,0,0,0,3.57-.67l1.15-7.24a7.46,7.46,0,0,0,.1-1.23,4.41,4.41,0,0,0-4.7-4.76M65.26,35.23A9,9,0,0,0,69,34.52l2.4-15.12h4.85a8.69,8.69,0,0,0,1.22-3.47H63.55a8.91,8.91,0,0,0-1.23,3.47h5.45Zm28.48-6.29a3.92,3.92,0,0,1,.05-.67A4.38,4.38,0,0,1,98,24.52a3,3,0,0,1,3.09,3.08,3.88,3.88,0,0,1-.06.67A4.4,4.4,0,0,1,96.82,32a3,3,0,0,1-3.08-3.09m10.71-.67a6.59,6.59,0,0,0,.09-1.15,5.7,5.7,0,0,0-6-5.79,8.37,8.37,0,0,0-8.13,6.94,6.81,6.81,0,0,0-.09,1.17,5.69,5.69,0,0,0,6,5.79,8.37,8.37,0,0,0,8.14-7m28.14,3.32.73-4.62h4.2c1.73,0,3,.35,3,1.81a4.05,4.05,0,0,1,0,.48c-.3,1.91-1.88,2.33-3.53,2.33Zm1.94-12.23h3.33c1.58,0,2.72.4,2.72,1.74a4.09,4.09,0,0,1,0,.46c-.28,1.72-1.67,2.19-3.23,2.19h-3.48Zm9.53,10.2a6.8,6.8,0,0,0,.08-1,3.71,3.71,0,0,0-2.32-3.68,6.17,6.17,0,0,0,2.4-4,5.93,5.93,0,0,0,.07-.83c0-2.62-2.2-4.12-6.09-4.12h-6.72l-3,19H137c3.43,0,6.49-1.9,7.05-5.42m28.52-1.29A4.4,4.4,0,0,1,168.35,32a3,3,0,0,1-3.08-3.09,5.29,5.29,0,0,1,0-.67,4.39,4.39,0,0,1,4.22-3.75,3,3,0,0,1,3.1,3.08,5.21,5.21,0,0,1-.06.67M170,21.33a8.37,8.37,0,0,0-8.13,6.94,8,8,0,0,0-.09,1.17,5.69,5.69,0,0,0,6,5.79,8.38,8.38,0,0,0,8.14-7,7.72,7.72,0,0,0,.09-1.15,5.7,5.7,0,0,0-6-5.79m-55.91,0A13,13,0,0,0,110,22a3.64,3.64,0,0,0-2.6,3.18l-1.59,10a8.61,8.61,0,0,0,3.57-.67L110.74,26a1.45,1.45,0,0,1,1-1.26,5.27,5.27,0,0,1,1.71-.29,2.12,2.12,0,0,1,2.29,2.32,5.13,5.13,0,0,1,0,.65l-1.24,7.77a8.66,8.66,0,0,0,3.58-.67l1.13-7.16a8.08,8.08,0,0,0,.11-1.27c0-3-1.88-4.8-5.18-4.8"></path></svg>